<svg viewBox="0 0 64 64" xml:space="preserve" xmlns="http://www.w3.org/2000/svg" enable-background="new 0 0 64 64"><path d="M58.059 46.741 50 44.261v-2.132A9.965 9.965 0 0 0 53 35h1c2.757 0 5-2.243 5-5 0-1.627-.793-3.061-2-3.974V22c0-7.72-6.28-14-14-14-1.39 0-2.731.21-4 .59V1H9v8H1v29c0 2.757 2.243 5 5 5h30v1.261l-8.059 2.48A6.965 6.965 0 0 0 23 53.432V63h40v-9.568a6.965 6.965 0 0 0-4.941-6.691zm-5.589.373-3.787 7.321-4.202-3.502 4.8-4.8 3.189.981zM48 44.586l-5 5-5-5v-.939c1.473.855 3.178 1.353 5 1.353s3.527-.498 5-1.353v.939zM51 35c0 4.411-3.589 8-8 8-2.953 0-5.532-1.613-6.918-4h2.102A2.996 2.996 0 0 0 41 41h4c1.654 0 3-1.346 3-3s-1.346-3-3-3h-4a2.996 2.996 0 0 0-2.816 2h-2.921A7.953 7.953 0 0 1 35 35v-9c0-.551.449-1 1-1h14c.551 0 1 .449 1 1v9zm-11 3c0-.551.449-1 1-1h4c.551 0 1 .449 1 1s-.449 1-1 1h-4c-.551 0-1-.449-1-1zm-8-11h1v6h-1c-1.654 0-3-1.346-3-3s1.346-3 3-3zm-1 7.899c.323.066.658.101 1 .101h1c0 .685.07 1.354.202 2H32c-.551 0-1-.449-1-1v-1.101zM54 33h-1v-6h1c1.654 0 3 1.346 3 3s-1.346 3-3 3zm1-11v3.101A4.995 4.995 0 0 0 54 25h-1.184A2.996 2.996 0 0 0 50 23H36a2.996 2.996 0 0 0-2.816 2H32c-.342 0-.677.035-1 .101V22c0-6.617 5.383-12 12-12s12 5.383 12 12zM11 3h26v6.37c-4.722 2.253-8 7.059-8 12.63v4.026c-1.207.914-2 2.348-2 3.974s.793 3.061 2 3.974V36c0 1.654 1.346 3 3 3h1.841a9.991 9.991 0 0 0 1.178 2H9.974A4.948 4.948 0 0 0 11 38V3zM3 38V11h6v2H5v26h2V15h2v23c0 1.654-1.346 3-3 3s-3-1.346-3-3zm33.719 8.133 4.8 4.8-4.206 3.505-3.819-7.313 3.225-.992zM61 61h-6v-5h-2v5H33v-5h-2v5h-6v-7.568a4.974 4.974 0 0 1 3.529-4.779l3.021-.929 5.138 9.839L43 52.302l6.316 5.264 5.097-9.854 3.058.941A4.974 4.974 0 0 1 61 53.432V61z" fill="#282663" class="fill-000000"></path><circle cx="38" cy="29" r="1" fill="#282663" class="fill-000000"></circle><circle cx="48" cy="29" r="1" fill="#282663" class="fill-000000"></circle><path d="M33 5h2v2h-2zM13 5h18v2H13zM13 9h18v2H13zM25 29H13v10h12V29zm-2 8h-8v-6h8v6zM13 25h12v2H13zM13 21h14v2H13zM13 17h14v2H13zM13 13h14v2H13z" fill="#282663" class="fill-000000"></path></svg>