<svg xmlns="http://www.w3.org/2000/svg" xmlns:xlink="http://www.w3.org/1999/xlink" width="18" height="18"><defs><path id="a" d="M0 0h18v18H0z"/></defs><g fill="none" fill-rule="evenodd"><mask id="b" fill="#fff"><use xlink:href="#a"/></mask><path fill="#FFF" d="M17.998 6.51 18 .526l-2.377 2.377-.267-.267A8.928 8.928 0 0 0 8.996 0C4.035 0 0 4.039 0 9.001S4.035 18 8.995 18c4.962 0 8.997-4.037 8.997-8.999H16.25c0 4.003-3.254 7.258-7.255 7.258-4 0-7.254-3.255-7.254-7.258s3.253-7.26 7.254-7.26c1.94 0 3.76.755 5.132 2.128l.264.265-2.375 2.376h5.982z" mask="url(#b)"/></g></svg>