<svg viewBox="0 0 64 64" xmlns="http://www.w3.org/2000/svg"><g data-name="20-World"><path d="M20.25 7.667 16.75 1h3.5l7.875 6.667" fill="none" stroke="#282663" stroke-linejoin="round" stroke-width="2px" class="stroke-000000"></path><path d="M36.875 7C31.625 7 8 8.5 8 8.5L3.625 4H1l1.263 6.493A3.387 3.387 0 0 0 5.715 13h17.073l-6.534 8h4.667l11.2-8H39.5c3.5 0 3.5-2.25 3.5-2.25S42.125 7 36.875 7Z" fill="none" stroke="#282663" stroke-linejoin="round" stroke-width="2px" class="stroke-000000"></path><path d="M37 7v3h6M35 33h5v-2h-3l-2-4h-2l-4 4h-1v-3l5-5h2l3-1-1-2h-4l2-3h5l1 2h4l4-1h4v1l5 4 1 3-1 1v1l1 1v3h-2v2l-1 3h-1l2 2v1h-2v4h-2v-4l-1-4-3 3h-1v-4l-4-1 1 2v3h-3l-1-3h-2v6h5v2l-3 2 1 2v1l-3 5h-4l-1-5v-3l-1-2v-1h-5l-2-2v-4l6-5h2l1 1zM58 49l-3-2-3 2v7M17 23v2l-3 1v2l-1 1-1 1v2H9v2h2l1 3h4l2 3 3 3-1 2v2l-3 4h-2l-1-6-2-1v-4l-3-4-3-2v-9H4v-2l4-4 4.8-4" fill="none" stroke="#282663" stroke-linejoin="round" stroke-width="2px" class="stroke-000000"></path><path d="M25 1.794A31 31 0 1 1 5.443 16" fill="none" stroke="#282663" stroke-linejoin="round" stroke-width="2px" class="stroke-000000"></path></g></svg>