<svg viewBox="-27 24 100 100" xml:space="preserve" xmlns="http://www.w3.org/2000/svg" xmlns:xlink="http://www.w3.org/1999/xlink"><circle cx="23" cy="74" fill="#F5EEE5" r="50" class="fill-f5eee5"></circle><defs><circle cx="23" cy="74" id="a" r="50"></circle></defs><clipPath id="b"><use overflow="visible" xlink:href="#a"></use></clipPath><path clip-path="url(#b)" d="m38 99.9 27.9 7.7c3.2 1.1 5.7 3.5 7.1 6.6v9.8H-27v-9.8c1.3-3.1 3.9-5.5 7.1-6.6L8 99.9V85h30v14.9z" fill="#E6C19C" class="fill-e6c19c"></path><g clip-path="url(#b)"><defs><path d="m38 99.9 27.9 7.7c3.2 1.1 5.7 3.5 7.1 6.6v9.8H-27v-9.8c1.3-3.1 3.9-5.5 7.1-6.6L8 99.9V85h30v14.9z" id="c"></path></defs><clipPath id="d"><use overflow="visible" xlink:href="#c"></use></clipPath><path clip-path="url(#d)" d="M23 102c-1.7 0-3.9-.4-5.4-1.1-1.7-.9-8-6.1-10.2-8.3-2.8-3-4.2-6.8-4.6-13.3-.4-6.5-2.1-29.7-2.1-35 0-7.5 5.7-19.2 22.1-19.2h.2c16.5.1 22.1 11.7 22.1 19.2 0 5.3-1.7 28.5-2.1 35-.4 6.5-1.8 10.2-4.6 13.3-2.1 2.3-8.4 7.4-10.2 8.3-1.3.7-3.5 1.1-5.2 1.1z" fill="#D4B08C" class="fill-d4b08c"></path><path clip-path="url(#d)" d="M-27 82H73v42H-27V82zm50 30c11 0 20-6.3 20-14s-9-14-20-14S3 90.3 3 98s9 14 20 14z" fill="#282663" class="fill-249cf2 fill-3a0272"></path></g><path d="M23 98c-1.5 0-3.5-.3-4.8-.9-1.6-.7-7.2-4.6-9.1-6.3-2.5-2.3-3.8-5.1-4.2-10S3 58.5 3 54.5C3 48.8 8.1 40 23 40s20 8.8 20 14.5c0 4-1.5 21.5-1.9 26.4s-1.6 7.7-4.2 10c-1.9 1.7-7.6 5.6-9.1 6.3-1.3.5-3.3.8-4.8.8z" fill="#F2CEA5" class="fill-f2cea5"></path><path d="M41 65.5s1.6.4 4.5-.6c.4-1.8 1.5-7 1.5-9.9s-.3-5.7-1.9-8.1c-1.8-2.6-5.6-4.1-7.6-4.1-2.3 1.4-7.7 4.6-9.4 6.5-.9 1 .4 1.8.4 1.8s1.2-.5 1.7-.6c2.5-.7 6.3-.3 8.4 1.6 2.4 2.2 2.4 7.4 2.5 8.8-.1 1.3-.1 4.6-.1 4.6z" fill="#1c150a" class="fill-d98c21 fill-1c150a"></path><path d="M.5 65C3.4 66 5 68.4 5 68.4v-6.3c0-1.6 0-6.5 2.4-9.7 3.2-4.3 8.4-5.3 11.1-3.5 1.4.9 6.1 5.5 11.1 1.7 3-2.3 8.5-7.5 8.5-7.5s-2.9-8.9-16.1-7.9c-5.6.5-11.8-.9-11.8-.9s-.1 2.5.9 3.8C2.8 40.4.1 46.4-.7 51c-.2.9-.3 1.8-.3 2.7v1.4C-1 58 .1 63.1.5 65z" fill="#261d09" class="fill-e6a422 fill-261d09"></path><path d="M30 84H16c-.4 0-.6.4-.4.8 1.3 2.3 3.7 3.5 6.7 3.7 3.1.2 6.5-1.3 8.1-3.7.2-.3 0-.8-.4-.8z" fill="#a3705f" class="fill-a3705f"></path><circle cx="32" cy="69" fill="#080808" r="2" class="fill-262626"></circle><circle cx="14" cy="69" fill="#080808" r="2" class="fill-262626"></circle><path d="M8 66s1.1-3 6.1-3c3.4 0 5.4 1.5 6.4 3" fill="none" stroke="#CC9872" stroke-width="2" class="stroke-cc9872"></path><path d="M38.1 66S37 63 32 63c-4.8 0-7 3-7 5v9" fill="none" stroke="#BB8660" stroke-width="2" class="stroke-bb8660"></path><path d="M46 61c0-12.7-10.3-23-23-23S0 48.3 0 61v8h3v-8c-.1-11 8.9-20.1 20-20 11.1-.1 20.1 9 20 20v9h3v-9z" fill="#282663" class="fill-6b363e fill-3a0272"></path><path d="M44 79.2C43.9 92.3 31 93 31 93" fill="none" stroke="#282663" stroke-width="2" class="stroke-6b363e stroke-3a0272"></path><path d="m25.3 91.9 5.8-1.6c1.1-.3 2.2.3 2.4 1.4l.5 1.9c.3 1.1-.3 2.2-1.4 2.4l-5.8 1.6c-1.1.3-2.2-.3-2.4-1.4l-.5-1.9c-.3-1 .4-2.1 1.4-2.4z" fill="#1fa10b" class="fill-452228 fill-fe7411"></path><path d="M5 82c-5.1-.5-9-4.8-9-10s3.9-9.4 9-10v20z" fill="#282663" class="fill-6b363e fill-3a0272"></path><defs><path d="M5 82c-5.1-.5-9-4.8-9-10s3.9-9.4 9-10v20z" id="e"></path></defs><clipPath id="f"><use overflow="visible" xlink:href="#e"></use></clipPath><path clip-path="url(#f)" fill="#1fa10b" d="M-4 62h7v20h-7z" class="fill-452228 fill-fe7411"></path><path d="M41 82c5.1-.5 9-4.8 9-10s-3.9-9.4-9-10v20z" fill="#282663" class="fill-6b363e fill-3a0272"></path><defs><path d="M41 82c5.1-.5 9-4.8 9-10s-3.9-9.4-9-10v20z" id="g"></path></defs><clipPath id="h"><use overflow="visible" xlink:href="#g"></use></clipPath><path clip-path="url(#h)" fill="#1fa10b" d="M43 62h8v20h-8z" class="fill-452228 fill-fe7411"></path></svg>