<svg viewBox="0 0 24 24" xml:space="preserve" xmlns="http://www.w3.org/2000/svg" enable-background="new 0 0 24 24"><g id="_icons"><path d="M12 3c-5 0-9 4-9 9 0 1.8.6 3.6 1.6 5.1l-1.4 2.4c-.2.3-.2.7 0 1s.4.5.8.5h8c5 0 9-4 9-9s-4-9-9-9zm0 16H5.8l.9-1.5c.2-.4.2-.8-.1-1.1C5.6 15.2 5 13.6 5 12c0-3.9 3.1-7 7-7s7 3.1 7 7-3.1 7-7 7z" fill="#282663" class="fill-000000"></path><path d="M12.1 7.3H12c-1 0-1.9.5-2.4 1.3-.4.5-.3 1.1.2 1.4.5.3 1.1.2 1.4-.3.2-.3.5-.4.8-.4h.1c.5 0 .9.4.9.9 0 .4-.3.8-.6.9l-.7.2c-.4.1-.7.5-.7.9v.8c0 .6.4 1 1 1 .5 0 1-.4 1-.9 1.2-.4 2-1.5 2-2.8 0-1.6-1.3-3-2.9-3z" fill="#282663" class="fill-000000"></path><circle cx="12" cy="16" r="1" fill="#282663" class="fill-000000"></circle></g></svg>